<?xml version="1.0" encoding="UTF-8"?>
<svg id="Ontwerp" xmlns="http://www.w3.org/2000/svg" viewBox="0 0 800 800">
  <defs>
    <style>
      .cls-1 {
        fill: #0a69b4;
      }

      .cls-2 {
        fill: #fff;
      }
    </style>
  </defs>
  <path class="cls-1" d="M132.77,14.29c119.43,0,231.39,33.16,315.25,93.39,39.26,28.3,73.74,66.31,99.7,109.94l22.69,38.09c1.49,2.51,3.9,3.63,6.29,3.63,3.77,0,7.5-2.81,7.5-7.43V33.96c0-10.83,8.78-19.62,19.62-19.62h162.28c10.83,0,19.62,8.74,19.62,19.57,0,107.52,0,625.38,0,730.45,0,10.46-8.21,18.96-18.66,19.35-24.88.94-57.86,2-79.42,2-125.35,0-265.22-46.29-348.05-115.19-35.03-29.17-64.41-63.93-87.33-103.32l-22.75-39.11c-1.48-2.55-3.91-3.7-6.32-3.7-3.77,0-7.5,2.81-7.5,7.43v234.27c0,10.83-8.78,19.62-19.62,19.62H33.91c-10.83,0-19.62-8.75-19.62-19.58,0-107.43,0-624.13,0-725.82,0-9.97,7.46-18.24,17.38-19.27,29.12-3.02,71.16-6.76,101.11-6.76"/>
  <path class="cls-2" d="M345.16,189.14c6.2,3.67,7,12.32,1.76,17.27-36.84,34.86-75.5,100.07-73.96,188.05,1.18,72.05,36.35,159.4,111.28,221.78,67.74,56.36,190.01,98.86,302.86,98.86,4.64,0,11.38-.41,17.03-.83,5.88-.44,10.44-5.31,10.44-11.21V216.62c0-6.2-5.03-11.23-11.23-11.23h-37.82c-6.2,0-11.23,5.03-11.23,11.23v432.96c0,6.67-5.74,11.81-12.38,11.19-55.32-5.17-133.58-22.8-197.23-67.22-5.66-3.95-6.19-12.21-1.16-16.94,39.82-37.42,80.78-105.01,80.78-198.88,0-77.93-52.57-165.55-118.08-212.75-66.82-47.99-161.11-80.07-273.96-80.07-12.51,0-27.68.98-37.54,1.74-5.85.45-10.32,5.33-10.32,11.2v606.02c0,6.2,5.03,11.23,11.23,11.23h37.69c6.2,0,11.23-5.03,11.23-11.23V148.05c0-6.38,5.22-11.5,11.6-11.25,45.76,1.76,124.15,13.98,189.01,52.35ZM385.76,537.77c-77.12-100.07-64.48-227.82,5.66-296.08,4.72-4.59,12.41-4.53,16.64.52,109.12,129.99,31.04,259.5-5.6,296.6-4.69,4.75-12.63,4.24-16.7-1.04ZM654.25,96.18v37.82c0,6.2,5.03,11.23,11.23,11.23h37.82c6.2,0,11.23-5.03,11.23-11.23v-37.82c0-6.2-5.03-11.23-11.23-11.23h-37.82c-6.2,0-11.23,5.03-11.23,11.23Z"/>
</svg>